<svg xmlns="http://www.w3.org/2000/svg" width="228.60mm" height="174.94mm" viewBox="0 0 228.60 174.94" fill="none" stroke="black" stroke-width="0.4" stroke-linejoin="round" stroke-linecap="round">
  <g data-elevation="1740">
    <path d="M 208.71 0.00 L 209.24 1.48 L 210.35 3.00 L 214.14 5.60 L 215.14 5.77 L 216.19 5.48 L 220.29 2.56 L 221.93 2.02 L 222.85 2.79 L 224.17 6.05 L 225.96 7.81 L 226.95 8.20 L 228.60 7.71"/>
    <path d="M 140.34 174.94 L 139.69 172.61 L 138.24 170.55 L 137.79 171.63 L 137.83 174.94"/>
    <path d="M 165.24 174.94 L 163.58 171.81 L 162.89 171.29 L 161.02 171.25 L 157.50 171.99 L 150.09 169.67 L 149.75 170.24 L 150.21 173.03 L 151.51 174.94"/>
  </g>
  <g data-elevation="1750">
    <path d="M 198.22 0.00 L 198.93 1.32 L 199.89 1.72 L 201.28 1.19 L 202.23 0.00"/>
    <path d="M 205.05 0.00 L 205.08 4.06 L 205.66 6.13 L 206.53 7.22 L 209.03 7.65 L 210.10 8.46 L 211.19 12.65 L 212.82 16.96 L 214.09 18.03 L 216.62 19.03 L 218.18 20.38 L 219.82 20.37 L 221.39 19.17 L 221.94 19.28 L 222.18 19.99 L 221.97 22.41 L 223.04 23.81 L 223.72 25.70 L 225.84 29.09 L 225.63 30.42 L 223.77 32.51 L 223.37 33.60 L 223.24 36.07 L 224.39 37.47 L 224.28 38.20 L 223.56 38.32 L 222.12 37.61 L 218.04 38.16 L 217.12 38.56 L 215.72 40.02 L 213.96 39.45 L 213.32 39.77 L 211.06 44.63 L 209.50 51.42 L 208.30 53.97 L 208.64 54.30 L 210.76 53.42 L 213.77 53.49 L 215.24 54.11 L 216.24 55.40 L 216.39 56.71 L 215.07 58.86 L 214.89 61.48 L 213.99 64.44 L 214.32 65.67 L 215.80 67.21 L 215.36 70.35 L 216.22 72.04 L 216.96 72.25 L 217.90 71.95 L 222.44 69.30 L 225.47 66.73 L 226.23 66.64 L 226.78 67.10 L 226.94 68.26 L 226.64 70.75 L 225.01 75.51 L 225.24 76.63 L 226.53 78.72 L 226.55 80.37 L 225.37 81.61 L 221.59 82.88 L 220.92 86.57 L 221.15 87.41 L 221.72 87.98 L 225.84 89.44 L 226.78 90.09 L 227.46 91.93 L 227.35 95.12 L 227.79 95.82 L 228.60 96.31"/>
    <path d="M 219.18 14.09 L 219.63 14.38 L 219.85 16.44 L 219.51 16.99 L 218.69 17.19 L 218.33 16.86 L 218.32 16.01 Z"/>
    <path d="M 169.74 174.94 L 167.07 172.52 L 165.28 170.24 L 163.19 168.28 L 159.22 165.83 L 156.48 162.79 L 149.49 157.57 L 144.83 156.97 L 140.85 155.94 L 134.98 156.19 L 132.25 154.85 L 128.31 154.43 L 126.35 153.41 L 124.81 151.43 L 117.03 149.68 L 112.91 147.62 L 112.61 147.81 L 112.65 148.44 L 114.36 152.36 L 114.74 155.25 L 116.15 157.79 L 115.71 160.27 L 116.43 163.37 L 116.23 164.00 L 114.76 165.61 L 112.57 171.66 L 112.50 172.90 L 113.18 174.94"/>
  </g>
  <g data-elevation="1760">
    <path d="M 107.92 0.00 L 107.07 0.93 L 104.20 2.62 L 100.79 4.05 L 98.17 5.87 L 95.07 6.51 L 92.48 7.74 L 89.69 8.09 L 88.54 8.57 L 87.48 9.85 L 85.51 13.70 L 84.53 16.43 L 83.57 17.85 L 82.40 18.50 L 77.30 17.68 L 76.81 18.91 L 77.20 20.72 L 78.07 21.43 L 79.13 21.47 L 82.95 18.99 L 85.09 19.33 L 86.57 20.30 L 87.46 20.21 L 89.41 19.12 L 92.84 15.87 L 96.89 14.04 L 100.29 11.51 L 105.44 10.27 L 108.67 10.30 L 109.63 10.02 L 110.43 9.23 L 110.91 8.08 L 112.16 0.00"/>
    <path d="M 160.77 0.00 L 160.46 1.85 L 159.48 3.87 L 159.62 5.37 L 160.26 6.77 L 162.54 9.27 L 163.46 12.79 L 164.88 14.63 L 165.52 14.68 L 167.10 13.58 L 170.13 12.74 L 172.90 13.36 L 175.35 14.68 L 176.50 14.45 L 178.40 13.45 L 179.26 12.80 L 181.10 10.34 L 185.61 8.90 L 185.13 6.65 L 183.43 6.12 L 182.77 5.36 L 182.44 4.03 L 182.79 3.04 L 184.16 2.31 L 186.12 2.83 L 187.49 1.46 L 188.31 1.22 L 189.04 1.55 L 189.47 2.21 L 190.17 5.99 L 188.66 8.29 L 187.31 9.66 L 187.36 10.43 L 191.44 13.00 L 193.88 12.58 L 194.59 15.16 L 197.12 16.33 L 199.07 18.04 L 199.32 19.50 L 197.87 22.54 L 197.72 25.87 L 197.15 26.20 L 195.72 25.42 L 195.27 26.62 L 197.05 29.72 L 198.29 34.61 L 198.42 36.84 L 197.39 38.65 L 199.49 41.77 L 200.36 45.42 L 198.89 48.55 L 198.31 51.17 L 197.66 52.35 L 195.97 53.70 L 193.09 54.31 L 191.79 55.37 L 190.43 59.84 L 190.83 63.24 L 190.16 65.42 L 190.22 66.58 L 190.62 67.36 L 191.23 67.77 L 193.82 67.24 L 194.40 67.61 L 195.19 70.52 L 194.88 75.51 L 195.57 76.77 L 196.62 76.77 L 198.57 74.76 L 199.99 74.39 L 202.23 74.92 L 204.33 76.24 L 206.94 77.09 L 207.82 77.70 L 208.20 78.58 L 208.22 79.73 L 206.79 83.02 L 206.73 85.07 L 208.46 89.21 L 209.69 90.64 L 211.98 91.40 L 213.11 91.13 L 213.45 90.29 L 213.09 86.90 L 213.45 85.11 L 214.25 84.13 L 215.66 83.21 L 216.51 83.06 L 217.11 83.48 L 217.64 85.27 L 217.42 89.67 L 217.88 90.51 L 219.62 92.15 L 220.09 93.20 L 220.02 94.77 L 218.92 99.86 L 220.21 104.45 L 222.01 106.29 L 221.56 109.41 L 224.29 112.28 L 226.74 118.54 L 227.56 119.36 L 228.60 119.83"/>
    <path d="M 201.95 12.92 L 204.08 13.44 L 204.70 14.10 L 204.82 14.83 L 203.39 17.99 L 202.37 18.95 L 201.46 19.24 L 200.24 18.30 L 199.54 16.21 L 200.58 13.82 Z"/>
    <path d="M 72.97 15.78 L 73.12 16.67 L 73.94 16.73 L 73.73 15.99 Z"/>
    <path d="M 211.73 55.74 L 212.80 55.75 L 213.19 56.53 L 212.14 58.31 L 211.09 59.13 L 210.69 58.50 L 210.62 57.04 L 210.97 56.26 Z"/>
    <path d="M 199.30 68.90 L 200.27 69.32 L 200.92 70.11 L 200.93 70.63 L 200.30 70.75 L 199.62 70.37 L 199.16 69.57 Z"/>
    <path d="M 111.36 123.11 L 109.86 124.14 L 109.35 125.77 L 110.05 127.22 L 111.63 127.69 L 113.78 126.78 L 114.37 125.38 L 114.07 124.33 L 113.35 123.49 L 112.39 123.06 Z"/>
    <path d="M 100.91 151.18 L 101.79 151.58 L 101.74 152.27 L 101.07 152.41 L 100.47 152.08 L 100.38 151.45 Z"/>
    <path d="M 86.39 157.17 L 86.12 157.59 L 86.48 158.04 L 88.29 158.23 L 87.39 157.45 Z"/>
    <path d="M 171.20 174.94 L 170.31 173.10 L 168.40 171.69 L 160.54 163.72 L 156.54 160.80 L 152.33 154.98 L 149.75 152.44 L 147.71 150.97 L 143.79 149.31 L 141.61 148.73 L 140.30 147.98 L 138.68 146.37 L 136.30 142.64 L 132.38 140.06 L 131.06 138.42 L 130.11 135.99 L 129.46 133.08 L 129.41 130.08 L 130.37 127.05 L 132.63 123.47 L 133.95 120.45 L 134.73 118.02 L 135.30 114.71 L 135.31 109.52 L 134.15 106.09 L 134.40 103.61 L 133.69 102.61 L 133.03 103.65 L 133.02 105.86 L 132.38 107.46 L 132.06 110.63 L 130.04 115.73 L 128.43 116.28 L 128.19 118.64 L 127.47 118.87 L 124.76 117.58 L 123.36 117.63 L 122.85 118.30 L 122.07 120.90 L 120.63 123.27 L 118.28 124.80 L 116.83 126.77 L 116.70 127.53 L 117.43 130.28 L 116.59 135.38 L 115.79 138.01 L 115.26 138.02 L 113.43 136.43 L 110.69 135.42 L 109.00 133.24 L 107.58 130.05 L 105.19 127.72 L 103.65 124.05 L 102.09 122.88 L 99.56 122.17 L 98.92 122.43 L 97.44 125.44 L 94.83 128.25 L 94.14 130.93 L 93.96 135.24 L 93.11 136.66 L 88.99 138.98 L 84.17 140.32 L 83.18 141.60 L 82.62 141.85 L 81.59 141.40 L 80.82 140.22 L 80.83 136.95 L 80.50 136.85 L 80.03 137.25 L 79.49 138.49 L 78.88 141.67 L 79.48 144.53 L 80.31 146.21 L 85.53 150.45 L 86.83 150.84 L 90.03 151.05 L 91.60 151.71 L 91.98 152.96 L 90.40 155.73 L 90.09 158.74 L 91.82 159.79 L 96.77 160.58 L 97.79 161.47 L 97.41 161.84 L 94.76 162.17 L 92.68 163.05 L 90.20 165.03 L 89.05 167.51 L 85.78 168.42 L 84.75 169.74 L 83.92 172.32 L 80.42 173.89 L 81.09 174.94"/>
  </g>
  <g data-elevation="1770">
    <path d="M 103.35 0.00 L 102.11 1.11 L 97.67 2.94 L 96.76 2.78 L 95.55 1.62 L 94.89 1.61 L 92.67 4.17 L 91.64 4.69 L 89.71 4.37 L 87.36 2.73 L 86.43 2.86 L 85.06 4.98 L 83.87 10.82 L 82.37 14.32 L 81.40 15.14 L 80.24 15.08 L 76.24 13.58 L 75.63 12.35 L 75.06 9.02 L 74.18 7.99 L 70.25 6.11 L 65.95 6.21 L 63.82 5.91 L 63.06 6.30 L 62.26 7.41 L 60.71 10.44 L 59.74 13.69 L 58.73 15.28 L 57.29 16.55 L 53.79 18.41 L 51.03 20.84 L 49.07 21.08 L 46.46 19.47 L 44.11 20.42 L 43.03 20.47 L 40.47 18.67 L 39.41 18.39 L 34.35 19.03 L 33.58 19.48 L 33.49 20.25 L 34.90 22.30 L 37.19 24.16 L 38.84 26.12 L 47.15 33.02 L 50.79 34.99 L 53.69 35.13 L 57.58 32.57 L 58.49 31.06 L 59.25 28.06 L 59.83 26.92 L 62.40 25.19 L 64.11 23.11 L 68.16 19.20 L 68.80 19.19 L 69.32 19.60 L 70.25 22.18 L 72.34 24.59 L 75.85 27.78 L 77.01 28.11 L 80.11 26.87 L 83.44 27.23 L 85.89 26.23 L 91.38 21.13 L 93.48 18.54 L 97.90 16.18 L 100.93 13.76 L 103.55 13.81 L 106.48 13.03 L 111.51 14.95 L 113.07 14.81 L 113.63 14.21 L 113.88 13.17 L 114.06 8.99 L 113.79 4.94 L 115.71 0.00"/>
    <path d="M 147.22 0.00 L 147.11 1.65 L 147.64 4.22 L 148.39 4.73 L 150.15 4.55 L 150.92 4.83 L 151.45 5.62 L 151.97 7.56 L 151.79 12.45 L 152.01 16.07 L 151.24 20.55 L 151.45 24.12 L 152.12 26.85 L 152.01 27.73 L 151.52 28.25 L 150.61 28.56 L 147.38 28.34 L 146.61 28.59 L 144.64 30.53 L 142.05 33.95 L 137.99 37.07 L 136.61 37.25 L 134.32 36.42 L 133.43 36.84 L 129.47 41.47 L 129.30 42.77 L 129.85 45.78 L 129.38 47.49 L 128.31 48.54 L 125.85 49.69 L 124.28 52.08 L 123.74 54.13 L 124.23 57.39 L 123.94 58.15 L 117.91 58.90 L 115.01 58.74 L 113.70 59.53 L 112.80 61.36 L 111.64 61.75 L 109.94 61.54 L 106.25 59.75 L 105.09 59.67 L 105.02 60.33 L 105.55 61.28 L 109.66 65.29 L 111.04 69.01 L 111.19 70.38 L 110.56 72.03 L 107.70 74.54 L 106.11 75.45 L 102.36 76.77 L 101.50 77.53 L 100.98 78.51 L 100.97 80.11 L 102.13 81.95 L 102.28 82.75 L 100.19 87.88 L 99.85 90.56 L 100.68 96.76 L 101.59 99.40 L 101.25 101.30 L 100.55 101.71 L 99.30 101.79 L 93.75 101.01 L 91.25 102.09 L 90.99 103.02 L 91.87 106.29 L 91.40 113.10 L 90.46 113.97 L 84.78 116.25 L 83.51 116.39 L 80.50 115.72 L 76.88 115.85 L 73.58 115.40 L 70.55 116.05 L 67.74 115.99 L 65.00 116.50 L 63.55 115.94 L 59.84 113.32 L 57.84 112.67 L 56.38 112.99 L 55.20 114.23 L 55.37 114.71 L 57.17 114.50 L 58.25 114.80 L 59.26 115.68 L 60.05 117.01 L 60.35 118.92 L 59.49 123.16 L 60.16 125.61 L 59.86 128.09 L 60.30 130.77 L 60.32 134.06 L 61.43 136.57 L 62.53 138.13 L 63.95 139.24 L 66.53 140.53 L 66.19 141.42 L 63.78 142.04 L 63.36 142.81 L 64.11 143.86 L 66.85 145.43 L 67.44 146.07 L 66.79 146.43 L 63.76 146.17 L 59.80 146.63 L 54.80 147.92 L 53.61 148.75 L 53.82 150.68 L 53.36 152.34 L 52.93 156.45 L 53.75 159.00 L 52.41 163.24 L 52.60 163.74 L 54.05 164.97 L 54.46 166.67 L 54.19 167.84 L 53.16 169.31 L 55.01 169.39 L 57.95 171.10 L 58.56 172.15 L 57.96 173.44 L 55.65 174.94"/>
    <path d="M 138.36 17.45 L 138.01 19.89 L 139.07 23.06 L 138.44 25.28 L 139.10 27.73 L 137.98 30.47 L 138.33 31.44 L 138.96 31.89 L 139.29 31.58 L 139.61 30.08 L 140.90 27.99 L 140.97 25.60 L 140.25 23.12 L 141.97 21.32 L 142.18 20.62 L 141.84 19.73 L 140.99 18.81 L 138.91 17.47 Z"/>
    <path d="M 187.34 18.41 L 188.26 18.64 L 188.79 19.44 L 188.66 20.68 L 188.00 21.41 L 187.15 21.14 L 186.53 20.09 L 186.65 19.01 Z"/>
    <path d="M 179.99 28.71 L 180.95 28.85 L 181.08 29.51 L 180.45 29.90 L 179.85 29.79 L 179.59 29.20 Z"/>
    <path d="M 177.09 37.46 L 178.36 37.66 L 178.35 38.27 L 177.82 39.04 L 176.23 39.63 L 175.09 39.27 L 174.75 38.53 L 174.94 37.94 Z"/>
    <path d="M 175.55 42.17 L 176.51 42.56 L 177.11 43.49 L 176.97 44.28 L 176.23 44.83 L 175.36 44.61 L 174.73 43.62 L 174.82 42.70 Z"/>
    <path d="M 146.87 69.19 L 147.48 69.76 L 147.01 70.51 L 146.35 69.96 Z"/>
    <path d="M 172.37 174.94 L 171.87 172.12 L 171.29 171.02 L 166.31 167.78 L 163.21 164.61 L 161.63 162.24 L 157.70 159.56 L 155.22 156.67 L 154.07 153.65 L 151.85 151.95 L 149.75 149.22 L 146.50 147.32 L 144.41 145.49 L 141.67 146.50 L 140.75 146.32 L 139.89 145.71 L 135.88 138.43 L 135.20 138.02 L 133.12 137.92 L 131.84 136.86 L 131.13 135.37 L 130.63 132.72 L 130.60 130.80 L 131.32 128.59 L 132.37 126.70 L 134.96 123.92 L 137.15 117.35 L 137.91 116.47 L 140.10 115.29 L 140.72 114.36 L 140.83 111.90 L 141.67 108.96 L 141.46 105.08 L 141.13 104.05 L 139.34 101.20 L 138.67 98.78 L 138.99 97.25 L 140.66 94.83 L 139.78 92.22 L 139.78 91.01 L 140.27 89.93 L 141.25 89.16 L 145.59 88.13 L 147.12 85.91 L 147.29 84.78 L 146.54 78.38 L 146.73 75.80 L 146.11 73.84 L 146.63 73.01 L 147.66 72.33 L 150.97 72.56 L 151.65 72.15 L 151.83 69.74 L 151.27 65.68 L 151.68 62.85 L 151.36 62.36 L 148.16 61.00 L 147.14 58.60 L 146.20 58.08 L 143.76 60.53 L 139.64 62.20 L 137.08 63.97 L 135.69 65.52 L 134.51 68.31 L 133.34 68.86 L 132.01 68.56 L 131.07 67.89 L 129.29 64.57 L 126.11 63.45 L 125.69 62.55 L 127.57 60.40 L 130.38 59.89 L 133.18 58.24 L 136.31 57.19 L 139.34 55.63 L 140.88 54.20 L 143.27 50.72 L 144.12 50.93 L 145.69 52.49 L 147.28 51.99 L 150.94 53.29 L 152.10 53.01 L 152.47 52.21 L 152.22 51.47 L 150.23 50.94 L 149.14 49.99 L 148.08 46.43 L 148.71 43.62 L 150.53 42.70 L 150.94 42.08 L 151.20 39.51 L 150.66 37.46 L 150.92 36.69 L 151.69 36.47 L 152.48 36.83 L 154.31 39.82 L 155.51 40.78 L 156.30 40.63 L 158.23 38.77 L 158.93 38.70 L 159.65 39.11 L 161.83 42.67 L 162.17 45.58 L 165.35 50.97 L 166.10 54.20 L 166.99 54.54 L 171.27 53.26 L 172.73 53.48 L 176.43 56.13 L 176.54 58.41 L 177.28 61.91 L 178.03 62.21 L 180.30 62.01 L 181.86 63.06 L 182.20 64.18 L 181.40 66.83 L 179.24 70.42 L 180.14 73.22 L 180.52 76.91 L 181.65 78.59 L 185.86 82.20 L 188.11 81.59 L 189.61 82.34 L 191.64 82.42 L 192.93 82.91 L 195.32 84.85 L 196.77 87.51 L 197.91 86.29 L 198.92 85.76 L 202.25 84.84 L 203.34 85.04 L 203.59 85.99 L 203.33 87.36 L 200.66 91.66 L 201.05 93.35 L 201.97 94.28 L 204.48 94.88 L 205.99 96.49 L 207.88 97.61 L 209.43 99.02 L 211.87 100.00 L 211.57 103.06 L 213.60 105.33 L 213.86 108.36 L 214.63 110.32 L 217.76 114.89 L 220.17 115.66 L 221.02 116.46 L 222.08 118.26 L 223.16 121.57 L 224.56 124.40 L 225.20 124.84 L 227.18 125.19 L 228.60 126.79"/>
  </g>
  <g data-elevation="1780">
    <path d="M 63.45 0.00 L 62.23 3.38 L 60.39 5.96 L 57.19 13.49 L 55.68 14.87 L 54.33 15.12 L 52.88 14.72 L 51.65 13.84 L 50.52 11.91 L 48.45 11.40 L 47.70 11.55 L 47.35 12.03 L 47.88 14.44 L 47.57 15.83 L 46.62 16.59 L 44.11 17.73 L 43.14 17.49 L 41.63 15.87 L 40.73 15.41 L 38.30 15.52 L 34.74 14.62 L 27.95 15.21 L 25.02 14.18 L 23.84 14.14 L 19.74 15.69 L 17.10 17.23 L 13.51 20.35 L 12.09 22.44 L 12.39 23.38 L 13.20 23.83 L 14.10 23.50 L 16.04 21.80 L 16.96 21.52 L 21.46 23.32 L 25.54 22.93 L 28.31 23.43 L 30.39 24.57 L 33.45 27.01 L 36.53 31.10 L 40.73 32.51 L 45.05 34.95 L 48.97 37.66 L 55.04 38.18 L 57.04 37.60 L 59.84 34.50 L 60.64 33.21 L 61.88 29.86 L 64.24 28.20 L 65.98 25.10 L 67.02 24.49 L 68.36 24.45 L 69.34 24.87 L 70.14 25.69 L 72.78 30.51 L 74.81 31.72 L 76.42 31.80 L 79.49 30.44 L 80.28 30.82 L 81.59 32.31 L 82.30 32.49 L 85.49 30.20 L 86.29 30.06 L 86.70 31.09 L 86.64 36.15 L 87.03 37.35 L 87.72 38.26 L 89.09 38.96 L 90.85 38.77 L 92.25 38.19 L 93.89 36.58 L 94.64 36.35 L 95.70 37.48 L 96.88 40.07 L 96.88 42.57 L 95.97 45.33 L 94.78 46.60 L 93.10 46.99 L 90.06 45.71 L 87.20 45.05 L 85.27 42.79 L 84.42 42.38 L 83.17 42.70 L 80.15 44.91 L 78.05 45.49 L 76.68 45.38 L 74.59 43.75 L 73.20 41.55 L 70.90 38.98 L 70.42 38.72 L 69.97 38.90 L 68.74 42.93 L 66.16 44.99 L 64.09 47.66 L 63.66 50.44 L 62.55 52.73 L 63.91 54.69 L 64.02 56.19 L 60.77 62.65 L 61.15 63.28 L 63.33 63.17 L 63.77 63.69 L 62.96 68.13 L 61.61 70.99 L 60.20 78.94 L 61.45 81.60 L 64.53 85.51 L 65.07 86.90 L 64.92 87.71 L 63.24 89.13 L 61.08 89.14 L 59.07 89.70 L 59.00 90.37 L 60.16 91.99 L 59.14 94.25 L 58.61 94.90 L 56.81 95.83 L 53.53 98.94 L 52.50 100.55 L 51.83 102.88 L 51.29 103.51 L 50.08 103.75 L 46.56 103.29 L 45.02 103.45 L 40.26 106.02 L 37.81 106.71 L 35.37 108.70 L 32.78 109.67 L 31.15 111.70 L 27.07 111.86 L 24.94 112.54 L 23.16 112.72 L 22.19 113.19 L 21.52 114.10 L 21.53 115.43 L 22.80 117.35 L 21.29 118.94 L 21.14 119.74 L 23.21 122.47 L 23.20 125.05 L 23.75 125.99 L 24.56 126.27 L 26.58 126.06 L 30.40 126.57 L 36.57 125.03 L 37.05 125.22 L 37.22 125.77 L 36.98 127.17 L 36.26 128.33 L 30.71 132.68 L 30.24 134.65 L 28.65 137.00 L 27.44 142.57 L 25.86 144.92 L 26.07 147.28 L 25.85 150.27 L 25.28 150.86 L 23.76 151.39 L 23.72 151.92 L 26.91 156.20 L 31.01 157.96 L 33.59 160.45 L 31.45 161.18 L 29.43 162.84 L 29.13 163.50 L 29.73 164.12 L 30.96 164.53 L 34.22 163.99 L 34.92 164.23 L 36.04 170.23 L 36.93 172.34 L 37.94 172.88 L 39.70 173.05 L 42.28 171.57 L 45.29 171.55 L 46.99 172.87 L 47.70 174.94"/>
    <path d="M 79.42 0.00 L 78.87 2.64 L 76.50 2.22 L 74.93 4.30 L 73.88 4.80 L 73.09 4.45 L 72.22 2.59 L 71.53 2.17 L 68.67 4.05 L 67.22 4.35 L 66.07 4.17 L 65.27 3.31 L 64.13 0.00"/>
    <path d="M 117.82 3.91 L 119.05 4.24 L 120.37 5.48 L 121.41 7.19 L 121.76 8.93 L 121.32 10.74 L 118.79 14.86 L 117.94 15.47 L 117.06 14.76 L 116.48 12.91 L 116.57 8.24 L 116.20 5.89 L 116.67 4.56 Z"/>
    <path d="M 78.65 9.51 L 79.14 9.50 L 79.43 10.10 L 79.26 10.83 L 78.81 11.08 L 78.18 10.53 Z"/>
    <path d="M 115.64 19.84 L 116.76 19.78 L 117.63 20.46 L 118.15 21.67 L 118.07 23.03 L 117.53 23.91 L 116.63 24.48 L 114.06 24.72 L 113.06 23.65 L 112.85 21.85 L 113.83 20.62 Z"/>
    <path d="M 97.10 20.75 L 97.72 20.84 L 97.52 21.41 L 96.89 21.68 L 96.26 21.53 L 96.35 21.15 Z"/>
    <path d="M 134.79 126.36 L 136.18 126.34 L 137.04 127.07 L 137.51 129.00 L 137.43 131.32 L 136.76 132.86 L 133.94 135.80 L 133.08 136.12 L 132.40 135.69 L 131.95 134.84 L 131.43 130.90 L 132.79 127.72 L 133.66 126.87 Z"/>
    <path d="M 39.23 166.04 L 40.11 166.33 L 40.07 167.23 L 39.17 166.85 Z"/>
    <path d="M 181.89 174.94 L 181.01 173.56 L 180.29 171.03 L 179.43 170.19 L 178.35 169.72 L 177.30 170.03 L 175.08 173.40 L 174.64 173.75 L 174.28 173.65 L 173.59 170.36 L 172.05 166.34 L 171.55 166.06 L 169.72 166.07 L 165.68 164.00 L 164.71 163.10 L 163.58 160.82 L 160.19 158.79 L 156.88 156.04 L 156.33 155.08 L 156.18 152.63 L 155.83 151.74 L 153.02 150.00 L 151.57 147.71 L 149.50 145.81 L 147.02 144.63 L 144.13 139.42 L 143.35 139.30 L 142.62 139.97 L 141.90 143.07 L 141.40 144.01 L 140.64 143.87 L 140.22 142.69 L 140.21 141.13 L 141.32 135.20 L 141.52 129.27 L 142.65 126.33 L 142.74 125.18 L 142.42 124.15 L 141.80 123.58 L 138.99 123.83 L 137.97 123.54 L 137.38 122.57 L 137.36 121.14 L 138.08 118.92 L 139.15 117.89 L 140.85 117.65 L 143.14 118.40 L 143.76 118.08 L 144.80 111.87 L 145.75 108.51 L 144.70 102.44 L 143.89 101.42 L 141.87 100.38 L 141.45 99.30 L 141.91 98.83 L 144.78 97.91 L 146.89 98.36 L 148.55 96.28 L 150.61 96.32 L 151.44 95.66 L 151.58 94.50 L 150.06 92.58 L 149.89 91.00 L 150.76 90.20 L 154.45 89.67 L 155.14 88.56 L 155.30 86.81 L 157.14 84.84 L 158.27 79.26 L 158.51 75.44 L 158.36 74.22 L 157.34 72.55 L 157.25 71.66 L 157.59 71.01 L 159.76 69.31 L 160.93 67.84 L 161.53 62.58 L 162.39 60.45 L 163.42 59.10 L 164.02 58.84 L 164.63 59.01 L 165.48 60.40 L 166.26 64.38 L 165.73 68.49 L 166.20 70.21 L 171.11 74.42 L 171.68 75.75 L 172.07 75.65 L 172.30 74.67 L 172.81 74.28 L 174.01 74.22 L 174.79 74.68 L 176.11 81.50 L 176.63 82.13 L 178.50 83.00 L 179.24 83.71 L 179.84 85.27 L 179.77 88.02 L 180.05 89.28 L 185.38 95.58 L 186.15 96.02 L 189.31 96.36 L 189.85 93.43 L 189.52 92.94 L 188.28 92.29 L 188.08 91.80 L 188.51 90.98 L 189.48 90.80 L 190.32 91.27 L 191.24 92.70 L 193.36 94.19 L 194.53 96.46 L 195.14 97.03 L 197.55 97.77 L 200.12 99.57 L 200.92 99.48 L 202.67 98.14 L 206.04 99.86 L 207.97 106.53 L 210.27 109.22 L 210.70 113.07 L 214.84 117.12 L 216.59 122.44 L 217.49 122.99 L 219.48 123.32 L 220.24 123.94 L 220.91 125.62 L 221.41 129.26 L 223.49 131.74 L 226.50 136.95 L 227.47 137.94 L 228.60 138.45"/>
  </g>
  <g data-elevation="1790">
    <path d="M 61.14 0.00 L 60.58 2.01 L 57.84 6.40 L 56.51 7.67 L 54.42 8.84 L 53.13 8.75 L 50.80 7.37 L 48.75 8.67 L 45.98 7.85 L 44.63 9.37 L 43.92 9.69 L 42.82 9.52 L 40.36 8.43 L 39.64 9.94 L 39.69 12.67 L 38.46 13.43 L 36.69 12.92 L 33.34 10.69 L 32.70 10.95 L 31.37 12.66 L 29.23 13.16 L 27.89 12.97 L 25.23 11.35 L 21.33 11.40 L 20.54 11.80 L 18.50 13.82 L 15.28 15.70 L 12.64 17.99 L 11.44 18.47 L 9.16 18.10 L 5.74 16.42 L 6.17 19.21 L 7.59 21.65 L 8.47 24.02 L 9.26 24.95 L 11.09 26.16 L 12.38 26.78 L 13.63 26.95 L 17.12 25.93 L 18.69 27.21 L 19.40 27.41 L 22.90 27.20 L 26.49 25.69 L 28.22 25.75 L 30.03 27.15 L 31.69 29.48 L 31.97 30.47 L 32.01 33.44 L 32.73 35.01 L 33.80 35.46 L 36.64 35.06 L 38.86 35.46 L 41.88 37.36 L 42.45 38.12 L 42.62 39.02 L 42.18 40.09 L 41.26 40.74 L 37.68 40.66 L 36.13 41.51 L 36.00 42.35 L 36.97 44.26 L 36.93 45.15 L 35.72 46.34 L 33.14 47.78 L 32.75 48.30 L 34.28 51.26 L 34.31 52.27 L 33.89 53.10 L 31.97 53.80 L 26.62 53.52 L 26.21 54.10 L 26.11 56.14 L 25.28 57.59 L 26.14 60.76 L 24.98 63.47 L 24.79 65.20 L 25.82 69.49 L 27.59 71.41 L 32.48 73.65 L 33.54 74.69 L 33.68 75.57 L 27.24 76.23 L 19.60 75.94 L 16.73 77.27 L 14.19 77.17 L 14.10 77.55 L 18.88 78.94 L 20.03 79.85 L 20.35 80.70 L 19.88 82.40 L 20.41 84.52 L 20.32 85.50 L 19.70 86.29 L 18.26 87.15 L 15.66 87.73 L 15.63 90.56 L 15.16 90.99 L 12.80 90.99 L 10.26 88.67 L 9.61 88.79 L 9.11 89.51 L 9.12 91.15 L 11.22 94.67 L 15.00 94.72 L 16.23 95.14 L 17.10 95.83 L 18.11 99.39 L 20.16 101.20 L 20.25 101.97 L 19.94 102.72 L 19.06 103.27 L 18.02 102.87 L 16.44 101.32 L 15.02 98.82 L 12.84 97.13 L 10.99 95.06 L 4.32 94.82 L 2.88 95.35 L 0.00 97.15"/>
    <path d="M 3.62 9.65 L 3.34 10.17 L 3.92 13.29 L 4.43 14.38 L 5.01 14.81 L 5.61 11.23 L 4.91 10.19 Z"/>
    <path d="M 162.90 69.97 L 163.58 69.98 L 164.08 70.44 L 166.30 74.85 L 166.53 76.10 L 166.08 76.91 L 161.97 76.28 L 160.70 75.35 L 160.37 73.52 L 160.58 71.93 L 161.37 70.89 Z"/>
    <path d="M 0.00 99.76 L 2.09 99.61 L 2.63 100.02 L 1.45 101.76 L 0.00 102.78"/>
    <path d="M 156.78 107.95 L 155.99 109.36 L 156.08 110.04 L 156.49 110.33 L 157.29 110.01 L 157.68 109.16 L 157.46 108.07 Z"/>
    <path d="M 0.00 110.79 L 0.79 111.17 L 1.59 112.46 L 2.37 117.06 L 1.90 118.66 L 0.00 120.52"/>
    <path d="M 133.89 128.32 L 134.49 128.26 L 134.99 128.61 L 135.35 130.31 L 134.63 131.75 L 133.21 132.85 L 132.56 132.11 L 132.42 130.90 L 133.03 129.24 Z"/>
    <path d="M 0.00 152.99 L 0.91 151.98 L 2.04 151.81 L 3.13 152.27 L 3.90 153.38 L 4.07 154.62 L 3.38 161.48 L 3.67 162.35 L 4.81 162.40 L 7.62 160.68 L 8.14 161.58 L 7.78 163.80 L 7.96 164.64 L 8.49 164.64 L 9.42 162.95 L 10.23 162.61 L 11.62 163.21 L 12.94 164.75 L 13.51 166.24 L 13.48 167.35 L 12.90 168.40 L 11.48 169.69 L 11.27 170.36 L 11.56 171.92 L 12.42 173.53 L 12.46 174.94"/>
    <path d="M 14.73 174.94 L 15.13 173.63 L 15.94 173.05 L 17.45 172.86 L 18.95 173.23 L 21.96 172.48 L 23.87 169.82 L 25.34 169.25 L 27.15 169.75 L 29.14 171.42 L 29.29 172.80 L 28.58 174.94"/>
    <path d="M 184.87 174.94 L 183.26 172.51 L 183.37 171.76 L 184.31 170.26 L 183.79 169.35 L 180.17 167.63 L 177.92 165.82 L 175.77 164.58 L 171.03 159.76 L 169.96 159.36 L 167.81 159.24 L 164.74 156.36 L 163.73 156.02 L 161.62 156.13 L 158.88 154.05 L 158.48 153.15 L 158.73 150.61 L 158.35 149.25 L 155.53 147.78 L 151.72 142.82 L 149.48 141.91 L 148.86 141.36 L 148.69 138.29 L 146.79 135.30 L 145.75 131.32 L 145.73 128.87 L 146.97 125.74 L 147.69 122.80 L 146.65 116.14 L 146.99 112.76 L 147.39 111.82 L 149.11 110.46 L 149.83 109.32 L 149.86 108.37 L 149.12 106.29 L 149.85 103.50 L 151.35 101.07 L 152.21 100.46 L 153.06 100.30 L 153.55 100.76 L 153.96 103.45 L 154.57 104.50 L 155.28 104.78 L 157.17 104.73 L 158.54 105.66 L 159.28 105.24 L 159.62 103.90 L 159.28 101.96 L 158.76 101.25 L 156.95 100.11 L 156.67 98.95 L 160.07 94.29 L 162.67 91.91 L 164.76 87.77 L 166.33 86.17 L 166.51 85.04 L 165.93 82.07 L 166.42 80.90 L 167.39 80.87 L 169.41 82.31 L 171.95 81.34 L 172.72 81.71 L 173.12 83.03 L 173.73 89.45 L 174.76 92.29 L 175.65 99.14 L 176.43 99.60 L 179.95 98.69 L 181.93 99.26 L 184.55 105.24 L 185.08 107.98 L 187.50 111.41 L 188.25 111.47 L 189.17 110.70 L 191.40 107.85 L 192.81 105.21 L 194.08 104.00 L 194.90 104.13 L 197.00 108.24 L 197.77 108.65 L 200.16 106.81 L 202.38 105.65 L 203.02 103.17 L 203.55 102.67 L 204.05 102.76 L 204.42 104.56 L 203.79 110.56 L 202.61 114.60 L 202.74 115.83 L 203.43 116.32 L 206.59 116.77 L 208.47 119.58 L 211.34 121.07 L 211.93 122.31 L 212.41 125.21 L 215.86 128.68 L 217.02 133.39 L 219.55 135.52 L 220.91 138.36 L 223.78 139.63 L 225.86 141.74 L 227.34 144.49 L 228.60 145.22"/>
  </g>
  <g data-elevation="1800">
    <path d="M 34.02 0.00 L 36.76 3.70 L 36.91 5.43 L 36.31 6.68 L 31.87 7.88 L 29.63 9.66 L 28.71 9.97 L 26.92 9.51 L 24.04 7.65 L 20.09 7.57 L 19.32 8.17 L 17.22 11.55 L 13.54 14.47 L 11.90 16.46 L 11.02 16.89 L 8.86 16.46 L 7.34 15.04 L 7.12 13.79 L 7.81 10.59 L 6.93 8.82 L 3.77 7.11 L 0.00 6.80"/>
    <path d="M 57.85 0.00 L 57.19 3.54 L 56.42 4.58 L 55.34 5.19 L 53.84 5.46 L 52.89 5.08 L 51.17 1.82 L 49.50 0.24 L 47.76 3.13 L 45.25 3.59 L 42.48 5.52 L 42.01 5.28 L 41.66 4.56 L 41.64 1.71 L 41.03 0.00"/>
    <path d="M 0.00 9.95 L 1.09 10.39 L 1.85 11.29 L 2.59 14.52 L 4.17 17.64 L 4.60 21.17 L 5.86 22.99 L 6.69 25.42 L 8.81 27.83 L 9.16 28.64 L 8.88 29.25 L 7.16 30.78 L 6.36 36.05 L 3.73 39.38 L 3.25 42.17 L 1.96 43.99 L 0.86 46.75 L 1.24 50.41 L 3.45 53.97 L 4.06 56.00 L 4.03 57.27 L 3.11 58.41 L 0.00 59.67"/>
    <path d="M 0.00 165.60 L 1.21 165.79 L 1.63 166.67 L 1.14 168.31 L 0.00 169.70"/>
    <path d="M 0.00 170.82 L 1.03 171.43 L 1.49 172.25 L 1.53 173.52 L 1.11 174.94"/>
    <path d="M 25.96 171.68 L 26.64 171.88 L 27.04 172.59 L 26.82 173.28 L 26.16 173.65 L 25.61 173.47 L 25.33 172.85 L 25.46 172.07 Z"/>
    <path d="M 195.92 174.94 L 194.93 172.71 L 192.82 171.94 L 189.52 170.05 L 185.59 166.57 L 184.07 163.20 L 183.16 163.38 L 182.08 165.50 L 180.88 165.54 L 176.73 162.56 L 175.08 159.80 L 172.46 156.75 L 170.78 155.29 L 169.45 154.45 L 163.72 152.22 L 163.15 151.17 L 163.69 148.46 L 163.39 144.12 L 162.91 142.87 L 161.45 142.04 L 157.40 141.82 L 154.50 139.95 L 151.40 136.07 L 150.31 134.10 L 148.95 133.19 L 148.54 132.52 L 148.64 130.86 L 149.80 129.26 L 150.66 126.64 L 151.42 126.10 L 153.92 125.32 L 155.88 122.68 L 157.81 121.18 L 160.27 118.36 L 160.03 115.92 L 160.66 113.34 L 160.15 111.57 L 161.02 107.76 L 162.54 103.53 L 162.19 101.55 L 162.33 100.31 L 163.97 97.77 L 164.00 95.58 L 164.31 94.50 L 169.14 87.62 L 169.68 85.14 L 170.10 84.59 L 170.76 84.60 L 170.87 85.27 L 170.17 87.23 L 170.09 89.58 L 169.22 91.66 L 168.10 96.92 L 168.84 99.60 L 168.67 102.60 L 169.07 103.53 L 172.20 106.95 L 175.91 108.59 L 176.63 108.29 L 177.94 106.88 L 179.58 106.70 L 179.19 105.34 L 179.36 103.52 L 179.87 102.86 L 180.56 103.23 L 181.23 104.79 L 181.12 105.80 L 180.52 106.94 L 181.65 110.04 L 181.75 115.11 L 183.52 117.54 L 184.44 120.67 L 185.44 121.73 L 186.35 121.74 L 187.08 121.15 L 188.37 117.50 L 189.68 115.24 L 190.74 114.20 L 191.65 113.99 L 193.43 114.90 L 196.83 113.94 L 197.65 114.11 L 198.91 121.76 L 201.44 124.94 L 202.60 127.17 L 203.65 127.49 L 205.87 126.45 L 207.07 127.09 L 209.66 130.28 L 212.27 132.68 L 212.97 136.19 L 215.52 139.33 L 216.63 142.78 L 217.39 144.10 L 218.31 144.82 L 219.54 145.12 L 221.34 145.25 L 223.38 144.75 L 224.96 149.47 L 227.29 151.45 L 228.60 151.92"/>
  </g>
  <g data-elevation="1810">
    <path d="M 7.66 0.00 L 8.36 1.83 L 9.65 3.27 L 11.11 3.97 L 14.84 4.96 L 15.55 5.72 L 14.13 10.97 L 10.29 14.47 L 9.54 14.62 L 9.06 14.08 L 10.11 9.58 L 9.60 8.11 L 8.36 6.27 L 7.04 5.51 L 5.08 4.93 L 0.00 5.20"/>
    <path d="M 25.69 1.95 L 26.71 1.89 L 27.28 2.23 L 27.12 2.87 L 26.39 3.55 L 23.25 4.67 L 21.75 4.42 L 21.80 3.92 L 22.59 3.26 Z"/>
    <path d="M 0.00 11.71 L 0.68 12.49 L 1.21 14.87 L 2.52 18.10 L 1.41 21.23 L 2.30 23.88 L 2.29 24.76 L 1.43 26.37 L 0.00 27.73"/>
    <path d="M 154.79 128.85 L 155.77 129.06 L 157.25 130.25 L 157.50 131.03 L 157.06 131.78 L 154.76 132.31 L 152.76 131.20 L 152.47 130.44 L 152.71 129.75 Z"/>
    <path d="M 198.21 174.94 L 198.10 172.54 L 198.43 169.93 L 198.14 168.84 L 197.32 168.39 L 195.00 168.36 L 193.20 167.06 L 190.72 167.16 L 189.67 166.75 L 187.87 164.36 L 186.94 162.03 L 184.35 157.57 L 179.72 156.39 L 178.96 156.64 L 177.30 157.97 L 176.07 157.87 L 175.29 157.32 L 174.85 156.52 L 175.39 153.61 L 174.91 151.62 L 174.28 150.55 L 173.46 150.29 L 172.05 150.82 L 170.10 149.64 L 167.19 149.92 L 166.31 149.56 L 165.77 148.39 L 165.80 147.12 L 166.30 146.31 L 167.63 145.31 L 167.83 144.67 L 165.65 139.18 L 163.27 138.26 L 161.52 136.94 L 160.82 137.18 L 159.39 138.76 L 158.70 138.98 L 156.16 137.92 L 155.36 136.95 L 155.40 135.82 L 156.66 134.47 L 159.38 133.40 L 161.88 131.74 L 163.48 128.59 L 167.91 127.03 L 170.11 125.20 L 171.57 122.59 L 174.12 121.23 L 175.63 118.42 L 175.88 115.85 L 176.62 114.87 L 178.06 114.41 L 178.54 115.39 L 178.20 116.95 L 177.06 118.79 L 177.58 121.46 L 176.67 123.91 L 179.22 128.86 L 180.52 133.01 L 182.11 135.31 L 183.48 135.69 L 184.98 134.92 L 188.24 131.56 L 188.96 128.68 L 190.31 126.64 L 192.82 124.93 L 194.48 124.84 L 195.21 125.44 L 195.71 126.61 L 195.76 129.82 L 197.29 131.62 L 198.44 135.00 L 202.58 136.31 L 203.32 136.21 L 205.15 135.21 L 207.97 136.32 L 209.16 137.72 L 209.56 142.26 L 211.08 144.93 L 213.72 146.22 L 215.06 148.31 L 218.29 151.20 L 219.02 151.40 L 220.75 150.98 L 221.43 151.16 L 222.54 153.90 L 224.72 156.89 L 226.38 156.92 L 228.60 155.31"/>
  </g>
  <g data-elevation="1820">
    <path d="M 199.15 139.29 L 200.01 139.41 L 200.67 139.95 L 201.00 140.72 L 200.86 141.40 L 199.70 141.88 L 197.24 141.82 L 197.19 141.18 L 197.68 140.23 Z"/>
    <path d="M 187.44 141.38 L 187.99 141.53 L 188.24 142.25 L 187.70 144.02 L 187.50 147.02 L 187.10 147.34 L 186.17 146.57 L 185.80 144.77 L 186.43 142.43 Z"/>
    <path d="M 170.96 142.42 L 173.56 142.56 L 175.46 143.65 L 175.99 144.51 L 176.41 146.20 L 176.43 147.28 L 176.12 147.92 L 175.25 148.03 L 174.24 147.51 L 173.14 144.42 L 171.07 142.95 Z"/>
    <path d="M 198.81 155.21 L 198.31 155.75 L 198.31 156.66 L 198.83 157.45 L 199.50 157.67 L 200.03 157.09 L 200.01 156.01 L 199.51 155.28 Z"/>
    <path d="M 204.66 174.94 L 201.71 173.02 L 200.91 171.58 L 201.04 169.98 L 202.72 167.52 L 202.48 166.33 L 201.45 165.80 L 196.78 165.39 L 192.52 163.07 L 188.68 157.53 L 188.49 155.41 L 189.19 152.50 L 188.24 149.24 L 188.42 148.06 L 189.97 147.56 L 191.11 147.70 L 193.80 149.50 L 194.42 151.88 L 195.60 152.11 L 196.28 151.36 L 196.13 150.42 L 194.81 148.95 L 194.20 143.27 L 192.36 141.57 L 192.41 140.57 L 192.98 140.00 L 193.77 140.18 L 195.05 141.68 L 196.76 142.28 L 199.09 146.77 L 199.74 147.40 L 201.25 147.28 L 203.29 145.97 L 205.08 145.32 L 206.43 145.60 L 207.45 146.73 L 208.74 149.25 L 211.10 150.19 L 212.93 152.39 L 214.42 152.20 L 214.99 152.55 L 216.29 155.05 L 216.76 157.14 L 218.45 160.68 L 221.03 162.80 L 222.47 165.54 L 225.84 167.38 L 226.32 167.12 L 226.78 165.92 L 227.27 165.68 L 228.60 167.38"/>
  </g>
  <g data-elevation="1830">
    <path d="M 202.72 151.70 L 205.34 151.76 L 205.79 152.27 L 206.67 154.73 L 207.37 155.05 L 208.89 154.97 L 209.52 155.41 L 210.29 158.05 L 208.93 161.35 L 208.76 165.24 L 209.67 166.18 L 212.55 166.59 L 213.31 167.53 L 213.30 169.12 L 212.75 170.16 L 210.56 172.57 L 208.11 173.90 L 206.67 173.64 L 205.53 172.25 L 206.14 170.29 L 206.07 165.20 L 205.70 163.60 L 205.08 162.76 L 203.02 161.75 L 202.51 161.19 L 203.18 159.29 L 203.21 158.22 L 201.67 152.90 L 201.97 152.10 Z"/>
    <path d="M 215.18 174.94 L 214.10 171.43 L 214.06 170.10 L 215.20 168.99 L 217.26 168.28 L 218.17 168.53 L 218.94 169.33 L 219.98 172.60 L 220.82 172.77 L 225.29 172.25 L 226.85 172.44 L 227.99 173.39 L 227.38 174.94"/>
  </g>
  <g data-elevation="1840">
    <path d="M 221.11 174.94 L 222.12 174.33 L 223.49 174.10 L 224.41 174.30 L 224.88 174.94"/>
  </g>
</svg>